<svg preserveAspectRatio="none" width="100%" height="100%" overflow="visible" style="display: block;" viewBox="0 0 17.5 17.5" fill="none" xmlns="http://www.w3.org/2000/svg">
<g id="Icon">
<path id="Vector" d="M13.8542 8.02083H3.64583C2.84042 8.02083 2.1875 8.67375 2.1875 9.47917V14.5833C2.1875 15.3887 2.84042 16.0417 3.64583 16.0417H13.8542C14.6596 16.0417 15.3125 15.3887 15.3125 14.5833V9.47917C15.3125 8.67375 14.6596 8.02083 13.8542 8.02083Z" stroke="var(--stroke-0, #C27AFF)" stroke-width="1.45833" stroke-linecap="round" stroke-linejoin="round"/>
<path id="Vector_2" d="M5.10417 8.02083V5.10417C5.10417 4.13723 5.48828 3.2099 6.17201 2.52617C6.85573 1.84245 7.78306 1.45833 8.75 1.45833C9.71693 1.45833 10.6443 1.84245 11.328 2.52617C12.0117 3.2099 12.3958 4.13723 12.3958 5.10417V8.02083" stroke="var(--stroke-0, #C27AFF)" stroke-width="1.45833" stroke-linecap="round" stroke-linejoin="round"/>
</g>
</svg>
