<svg preserveAspectRatio="none" width="100%" height="100%" overflow="visible" style="display: block;" viewBox="0 0 19.25 19.25" fill="none" xmlns="http://www.w3.org/2000/svg">
<path id="Vector" d="M18.375 9.625H16.205C15.8226 9.62418 15.4505 9.74864 15.1455 9.97935C14.8405 10.2101 14.6195 10.5343 14.5163 10.9025L12.46 18.2175C12.4467 18.2629 12.4191 18.3029 12.3812 18.3313C12.3434 18.3596 12.2973 18.375 12.25 18.375C12.2027 18.375 12.1566 18.3596 12.1188 18.3313C12.0809 18.3029 12.0533 18.2629 12.04 18.2175L7.21 1.0325C7.19675 0.987062 7.16911 0.947149 7.13125 0.91875C7.09338 0.890351 7.04733 0.875 7 0.875C6.95267 0.875 6.90662 0.890351 6.86875 0.91875C6.83089 0.947149 6.80325 0.987062 6.79 1.0325L4.73375 8.3475C4.63091 8.71426 4.41121 9.03745 4.10801 9.26801C3.8048 9.49857 3.43465 9.62391 3.05375 9.625H0.875" stroke="var(--stroke-0, #C27AFF)" stroke-width="1.75" stroke-linecap="round" stroke-linejoin="round"/>
</svg>
