<svg preserveAspectRatio="none" width="100%" height="100%" overflow="visible" style="display: block;" viewBox="0 0 17.506 19.2546" fill="none" xmlns="http://www.w3.org/2000/svg">
<path id="Vector" d="M1.75298 11.3773C1.5874 11.3778 1.42506 11.3314 1.28482 11.2434C1.14458 11.1554 1.03219 11.0293 0.960716 10.88C0.889242 10.7306 0.861616 10.564 0.881047 10.3996C0.900477 10.2352 0.966167 10.0796 1.07048 9.95103L9.73298 1.02603C9.79796 0.951026 9.88651 0.900342 9.98409 0.882296C10.0817 0.864251 10.1825 0.879916 10.27 0.926721C10.3575 0.973526 10.4265 1.04869 10.4657 1.13987C10.5048 1.23106 10.5118 1.33285 10.4855 1.42853L8.80548 6.69603C8.75595 6.82861 8.73931 6.97124 8.757 7.11166C8.77469 7.25209 8.82619 7.38613 8.90706 7.50228C8.98794 7.61843 9.09579 7.71323 9.22135 7.77855C9.34691 7.84386 9.48645 7.87774 9.62798 7.87728H15.753C15.9186 7.87672 16.0809 7.92315 16.2211 8.01117C16.3614 8.0992 16.4738 8.22522 16.5453 8.37458C16.6167 8.52394 16.6444 8.69052 16.6249 8.85496C16.6055 9.01939 16.5398 9.17494 16.4355 9.30353L7.77298 18.2285C7.70801 18.3035 7.61946 18.3542 7.52188 18.3723C7.42429 18.3903 7.32348 18.3746 7.23597 18.3278C7.14847 18.281 7.07947 18.2059 7.04032 18.1147C7.00116 18.0235 6.99417 17.9217 7.02048 17.826L8.70048 12.5585C8.75002 12.4259 8.76666 12.2833 8.74897 12.1429C8.73128 12.0025 8.67978 11.8684 8.59891 11.7523C8.51803 11.6361 8.41018 11.5413 8.28462 11.476C8.15905 11.4107 8.01952 11.3768 7.87798 11.3773H1.75298Z" stroke="var(--stroke-0, #05DF72)" stroke-width="1.75" stroke-linecap="round" stroke-linejoin="round"/>
</svg>
