<svg preserveAspectRatio="none" width="100%" height="100%" overflow="visible" style="display: block;" viewBox="0 0 17.5 17.5" fill="none" xmlns="http://www.w3.org/2000/svg">
<g id="Icon">
<path id="Vector" d="M2.91666 10.2083C2.77868 10.2088 2.64339 10.1701 2.52652 10.0968C2.40965 10.0234 2.316 9.91838 2.25644 9.79392C2.19688 9.66945 2.17385 9.53064 2.19005 9.3936C2.20624 9.25657 2.26098 9.12695 2.34791 9.01979L9.56666 1.58229C9.62081 1.51979 9.6946 1.47755 9.77592 1.46251C9.85724 1.44747 9.94125 1.46053 10.0142 1.49953C10.0871 1.53854 10.1446 1.60117 10.1772 1.67716C10.2098 1.75315 10.2157 1.83797 10.1937 1.91771L8.79375 6.30729C8.75246 6.41778 8.7386 6.53663 8.75334 6.65365C8.76809 6.77067 8.811 6.88237 8.87839 6.97916C8.94579 7.07596 9.03566 7.15496 9.1403 7.20939C9.24494 7.26382 9.36122 7.29205 9.47916 7.29167H14.5833C14.7213 7.2912 14.8566 7.32989 14.9735 7.40324C15.0903 7.4766 15.184 7.58162 15.2436 7.70608C15.3031 7.83055 15.3261 7.96936 15.3099 8.10639C15.2938 8.24343 15.239 8.37305 15.1521 8.48021L7.93333 15.9177C7.87918 15.9802 7.80539 16.0224 7.72407 16.0375C7.64275 16.0525 7.55874 16.0395 7.48582 16.0005C7.4129 15.9615 7.3554 15.8988 7.32277 15.8228C7.29014 15.7468 7.28431 15.662 7.30624 15.5823L8.70624 11.1927C8.74753 11.0822 8.76139 10.9634 8.74665 10.8463C8.7319 10.7293 8.68899 10.6176 8.6216 10.5208C8.5542 10.424 8.46433 10.345 8.35969 10.2906C8.25505 10.2362 8.13877 10.2079 8.02083 10.2083H2.91666Z" stroke="var(--stroke-0, #05DF72)" stroke-width="1.45833" stroke-linecap="round" stroke-linejoin="round"/>
</g>
</svg>
