<svg preserveAspectRatio="none" width="100%" height="100%" overflow="visible" style="display: block;" viewBox="0 0 17.5 17.5" fill="none" xmlns="http://www.w3.org/2000/svg">
<g id="Icon">
<path id="Vector" d="M10.9375 15.3125V9.47917C10.9375 9.28578 10.8607 9.10031 10.7239 8.96357C10.5872 8.82682 10.4017 8.75 10.2083 8.75H7.29167C7.09828 8.75 6.91281 8.82682 6.77607 8.96357C6.63932 9.10031 6.5625 9.28578 6.5625 9.47917V15.3125" stroke="var(--stroke-0, #05DF72)" stroke-width="1.45833" stroke-linecap="round" stroke-linejoin="round"/>
<path id="Vector_2" d="M2.1875 7.29166C2.18745 7.07952 2.23368 6.86993 2.32297 6.6775C2.41226 6.48506 2.54246 6.31443 2.70448 6.17749L7.80865 1.80249C8.07186 1.58003 8.40536 1.45798 8.75 1.45798C9.09464 1.45798 9.42814 1.58003 9.69135 1.80249L14.7955 6.17749C14.9575 6.31443 15.0877 6.48506 15.177 6.6775C15.2663 6.86993 15.3126 7.07952 15.3125 7.29166V13.8542C15.3125 14.2409 15.1589 14.6119 14.8854 14.8854C14.6119 15.1588 14.2409 15.3125 13.8542 15.3125H3.64583C3.25906 15.3125 2.88813 15.1588 2.61464 14.8854C2.34115 14.6119 2.1875 14.2409 2.1875 13.8542V7.29166Z" stroke="var(--stroke-0, #05DF72)" stroke-width="1.45833" stroke-linecap="round" stroke-linejoin="round"/>
</g>
</svg>
