<svg preserveAspectRatio="none" width="100%" height="100%" overflow="visible" style="display: block;" viewBox="0 0 17.5 17.5" fill="none" xmlns="http://www.w3.org/2000/svg">
<g id="Icon">
<path id="Vector" d="M14.5833 7.29167C14.5833 10.9324 10.5445 14.7241 9.18823 15.8951C9.06188 15.9901 8.90808 16.0415 8.75 16.0415C8.59192 16.0415 8.43812 15.9901 8.31177 15.8951C6.95552 14.7241 2.91667 10.9324 2.91667 7.29167C2.91667 5.74457 3.53125 4.26084 4.62521 3.16688C5.71917 2.07292 7.2029 1.45833 8.75 1.45833C10.2971 1.45833 11.7808 2.07292 12.8748 3.16688C13.9688 4.26084 14.5833 5.74457 14.5833 7.29167Z" stroke="var(--stroke-0, #C27AFF)" stroke-width="1.45833" stroke-linecap="round" stroke-linejoin="round"/>
<path id="Vector_2" d="M8.75 9.47917C9.95812 9.47917 10.9375 8.49979 10.9375 7.29167C10.9375 6.08354 9.95812 5.10417 8.75 5.10417C7.54188 5.10417 6.5625 6.08354 6.5625 7.29167C6.5625 8.49979 7.54188 9.47917 8.75 9.47917Z" stroke="var(--stroke-0, #C27AFF)" stroke-width="1.45833" stroke-linecap="round" stroke-linejoin="round"/>
</g>
</svg>
