<svg preserveAspectRatio="none" width="100%" height="100%" overflow="visible" style="display: block;" viewBox="0 0 17.5 19.2464" fill="none" xmlns="http://www.w3.org/2000/svg">
<path id="Vector" d="M16.625 6.12321C16.6247 5.81632 16.5437 5.51491 16.3901 5.24922C16.2365 4.98353 16.0158 4.7629 15.75 4.60946L9.625 1.10946C9.35897 0.955861 9.05719 0.875 8.75 0.875C8.44281 0.875 8.14103 0.955861 7.875 1.10946L1.75 4.60946C1.48423 4.7629 1.26348 4.98353 1.1099 5.24922C0.956325 5.51491 0.875315 5.81632 0.875 6.12321V13.1232C0.875315 13.4301 0.956325 13.7315 1.1099 13.9972C1.26348 14.2629 1.48423 14.4835 1.75 14.637L7.875 18.137C8.14103 18.2906 8.44281 18.3714 8.75 18.3714C9.05719 18.3714 9.35897 18.2906 9.625 18.137L15.75 14.637C16.0158 14.4835 16.2365 14.2629 16.3901 13.9972C16.5437 13.7315 16.6247 13.4301 16.625 13.1232V6.12321Z" stroke="var(--stroke-0, #FF8904)" stroke-width="1.75" stroke-linecap="round" stroke-linejoin="round"/>
</svg>
